<svg xmlns="http://www.w3.org/2000/svg" width="34" height="34" viewBox="0 0 34 34">
  <g id="Best_Selling_Product_icon" data-name="Best Selling Product icon" transform="translate(-317 -743.281)">
    <rect id="Rectangle_52550" data-name="Rectangle 52550" width="34" height="34" rx="10" transform="translate(317 743.281)" fill="#fff" opacity="0"/>
    <g id="Group_299164" data-name="Group 299164" transform="translate(-264.736 429.103)">
      <path id="Subtraction_3" data-name="Subtraction 3" d="M11.359,17.041H1.826A1.828,1.828,0,0,1,0,15.215V1.826A1.828,1.828,0,0,1,1.826,0H5.477V5.477a.606.606,0,0,0,.377.56.5.5,0,0,0,.215.049h.016a.606.606,0,0,0,.432-.176L7.3,5.118l.785.792a.609.609,0,0,0,.864,0l.785-.792.784.792a.613.613,0,0,0,1.041-.432V0h3.651a1.828,1.828,0,0,1,1.826,1.826V9.051l-.027,0a.2.2,0,0,0-.142.056L15.74,10.231a.418.418,0,0,1-.3.131.414.414,0,0,1-.105-.014l-1.558-.414a.181.181,0,0,0-.053-.008.2.2,0,0,0-.1.026.212.212,0,0,0-.093.12l-.421,1.552a.418.418,0,0,1-.293.3l-1.556.421a.2.2,0,0,0-.12.092.2.2,0,0,0-.019.151l.047.189a.328.328,0,0,1,.015.056l.35,1.314a.409.409,0,0,1-.105.4c-1.165,1.174-1.171,1.384-.069,2.5ZM3.043,13.389a.609.609,0,1,0,0,1.217H6.695a.609.609,0,0,0,0-1.217Zm0-2.435a.609.609,0,1,0,0,1.217H6.695a.609.609,0,0,0,0-1.217ZM8.52,4.619h0l-.785-.791a.609.609,0,0,0-.864,0l-.176.182V0h3.651V4.01l-.176-.182a.613.613,0,0,0-.432-.18.6.6,0,0,0-.432.18l-.785.791Z" transform="translate(588 321)" fill="#313652"/>
      <path id="Path_199716" data-name="Path 199716" d="M29.932,8.545a2.44,2.44,0,0,1-.717-1.73h0a2.453,2.453,0,0,1,4.905,0h0a2.453,2.453,0,0,1-4.186,1.73Zm.328-1.56.785.785a.326.326,0,0,0,.459,0L33.074,6.2a.325.325,0,0,0-.459-.459L31.274,7.083l-.556-.556a.325.325,0,1,0-.459.459ZM27.039,4.269a.155.155,0,0,1,.015-.119h0a.161.161,0,0,1,.095-.073l1.222-.33a.329.329,0,0,0,.231-.233l.33-1.22A.169.169,0,0,1,29,2.2a.155.155,0,0,1,.119-.015l1.224.326a.325.325,0,0,0,.321-.092l.889-.884a.165.165,0,0,1,.224,0l.9.894a.325.325,0,0,0,.311.083h0l1.224-.326a.155.155,0,0,1,.119.015h0a.159.159,0,0,1,.073.095l.33,1.222a.329.329,0,0,0,.233.231l1.22.33a.169.169,0,0,1,.095.073.167.167,0,0,1,.017.119l-.039.146a.294.294,0,0,0-.012.044l-.275,1.033a.319.319,0,0,0,.092.318l.884.889A.158.158,0,0,1,37,6.81a.162.162,0,0,1-.044.112l-.894.9a.326.326,0,0,0-.085.311l.2.758a.294.294,0,0,0,.012.044l.112.42a.155.155,0,0,1-.015.119h0a.161.161,0,0,1-.095.073l-1.222.33a.329.329,0,0,0-.231.233l-.33,1.22a.169.169,0,0,1-.073.095l-.01,0a.153.153,0,0,1-.109.01l-.095-.024a.294.294,0,0,0-.044-.012l-1.084-.287a.325.325,0,0,0-.321.092l-.889.884a.158.158,0,0,1-.112.044.162.162,0,0,1-.112-.044l-.9-.894a.325.325,0,0,0-.311-.083h0l-1.086.287a.294.294,0,0,0-.044.012l-.095.024a.155.155,0,0,1-.119-.015l-.01,0a.168.168,0,0,1-.063-.087L28.6,10.11a.329.329,0,0,0-.233-.231l-1.22-.33a.161.161,0,0,1-.095-.073h0a.167.167,0,0,1-.017-.119l.112-.42a.293.293,0,0,0,.012-.044l.2-.758a.319.319,0,0,0-.092-.318c-.916-.921-.916-1.081.007-2.012a.319.319,0,0,0,.083-.311h0l-.275-1.033a.294.294,0,0,0-.012-.044l-.039-.146Zm1.528,2.544h0a3.1,3.1,0,0,0,6.2,0h0a3.1,3.1,0,0,0-6.2,0Z" transform="translate(573.249 329.923)" fill="#6e7cc3"/>
    </g>
  </g>
</svg>
