<svg width="19" height="19" viewBox="0 0 19 19" fill="none" xmlns="http://www.w3.org/2000/svg">
    <path
        d="M3.37711 15.8725L3.41655 15.8932L8.37783 18.4927L8.379 18.4933C8.82298 18.7411 9.36487 18.7375 9.80718 18.4835L3.37711 15.8725ZM3.37711 15.8725L3.35203 15.9093C3.29335 15.9954 3.19598 16.0516 3.08398 16.0516H0.458984C0.278555 16.0516 0.133984 15.9062 0.133984 15.7266V9.72656C0.133984 9.54691 0.278555 9.40156 0.458984 9.40156H3.08398C3.2627 9.40156 3.40898 9.54707 3.40898 9.72656V9.77656H3.45898H6.64648C6.92023 9.77656 7.18844 9.8538 7.41849 9.99943L7.4186 9.9995L12.0705 12.9277C12.2952 13.0692 12.4673 13.2626 12.5815 13.4825L12.6055 13.5289L12.6508 13.5028L15.8608 11.6571C15.8608 11.6571 15.8608 11.6571 15.8608 11.6571C16.555 11.2582 17.4413 11.4976 17.84 12.1912L17.84 12.1913C18.2406 12.8851 18.0014 13.7721 17.3072 14.171L17.3321 14.2144L17.3072 14.171L9.80721 18.4835L3.37711 15.8725ZM3.40898 10.4266H3.45898H6.64648C6.79655 10.4266 6.94449 10.4692 7.07243 10.5495L7.07248 10.5496L11.7224 13.4777L3.40898 10.4266ZM3.40898 10.4266V10.4766M3.40898 10.4266V10.4766M3.40898 10.4766V15.1247V15.1549M3.40898 10.4766V15.1549M3.40898 15.1549L3.43578 15.169M3.40898 15.1549L3.43578 15.169M3.43578 15.169L8.68058 17.9175M3.43578 15.169L8.68058 17.9175M8.68058 17.9175C8.6834 17.9194 8.68582 17.9207 8.68726 17.9215C8.68957 17.9228 8.69184 17.9239 8.6938 17.9248C8.93943 18.0621 9.2386 18.0604 9.48207 17.9201L16.982 13.6077L16.982 13.6077L16.9571 13.5643C17.3171 13.3579 17.4409 12.8991 17.2346 12.5402L8.68058 17.9175ZM6.04772 12.1781L6.04752 12.1784C5.95165 12.3302 5.99716 12.531 6.14811 12.6265L6.04772 12.1781ZM6.04772 12.1781C6.14173 12.0267 6.34308 11.9809 6.49412 12.0766L6.49423 12.0766M6.04772 12.1781L6.49423 12.0766M6.49423 12.0766L10.8705 14.8317L10.8705 14.8318M6.49423 12.0766L10.8705 14.8318M10.8705 14.8318C11.2445 15.067 11.7384 14.9545 11.9744 14.581L11.9745 14.5808M10.8705 14.8318L11.9745 14.5808M11.9745 14.5808C12.0744 14.4208 12.1124 14.2383 12.0924 14.0634L12.0942 14.0632M11.9745 14.5808L12.0942 14.0632M12.0942 14.0632L12.0909 14.0547M12.0942 14.0632L12.0909 14.0547M12.0909 14.0547C12.0909 14.0547 12.0909 14.0547 12.0909 14.0546H12.0914L12.0904 14.0476C12.0584 13.8214 11.9326 13.6093 11.7225 13.4778L12.0909 14.0547ZM16.1859 12.2205L12.7697 14.184L12.7459 14.1976L12.7447 14.2251C12.7338 14.4663 12.6614 14.7082 12.5236 14.9272L12.5235 14.9273C12.0976 15.6045 11.2023 15.8081 10.5244 15.3818C10.5244 15.3818 10.5244 15.3818 10.5244 15.3818L6.14819 12.6266L16.1859 12.2205ZM2.70898 15.4016H2.75898V15.3516V15.3471V10.1016V10.0516H2.70898H0.833984H0.783984V10.1016V15.3516V15.4016H0.833984H2.70898ZM6.69524 3.40156H6.7371L6.74446 3.36035C7.00653 1.89165 8.29113 0.776563 9.83398 0.776563C11.3787 0.776563 12.6614 1.89164 12.9235 3.36035L12.9309 3.40156H12.9727H14.5215C14.6889 3.40156 14.8302 3.5299 14.8448 3.69698L14.8448 3.69716L15.518 11.0888C15.5342 11.267 15.401 11.4256 15.222 11.4419L15.2219 11.4419C15.0451 11.4581 14.8857 11.3262 14.8694 11.1476L14.2281 4.09703L14.224 4.05156H14.1783H13.0215H12.9715V4.10156V5.60156C12.9715 5.78088 12.8252 5.92656 12.6465 5.92656C12.4678 5.92656 12.3215 5.78088 12.3215 5.60156V4.10156V4.05156H12.2715H7.39648H7.34648V4.10156V5.60156C7.34648 5.78088 7.20018 5.92656 7.02148 5.92656C6.84278 5.92656 6.69648 5.78088 6.69648 5.60156V4.10156V4.05156H6.64648H5.48962H5.44396L5.43983 4.09704L4.99356 9.00597C4.97732 9.18436 4.81807 9.31653 4.63914 9.30027C4.46043 9.28402 4.32877 9.12575 4.34502 8.94716L4.82315 3.69716L4.82317 3.69698C4.83777 3.5299 4.97906 3.40156 5.14648 3.40156H6.69524ZM12.2058 3.40156H12.269L12.2545 3.3401C11.9962 2.24307 11.0108 1.42656 9.83398 1.42656C8.65716 1.42656 7.67178 2.24307 7.41346 3.3401L7.39899 3.40156H7.46213H12.2058Z"
        fill="#263238" stroke="white" stroke-width="0.1" />
</svg>