<svg xmlns="http://www.w3.org/2000/svg" width="34" height="34" viewBox="0 0 34 34">
  <g id="India_s_First_Online_icon" data-name="India’s First Online icon" transform="translate(-317 -743.281)">
    <rect id="Rectangle_52550" data-name="Rectangle 52550" width="34" height="34" rx="10" transform="translate(317 743.281)" fill="#fff" opacity="0"/>
    <g id="noun-equal-387627" transform="translate(351.718 887.428)">
      <g id="Group_299135" data-name="Group 299135" transform="translate(-30.999 -140.657)">
        <path id="Path_199700" data-name="Path 199700" d="M27.968,17.476c-.8,2.506-3.861,3.131-3.861,3.131a10.561,10.561,0,0,0,2.574-3.131c.965-1.879-1.287-1.252-1.287-1.252s-1.126,1.566-5.147,4.384a5.388,5.388,0,0,0-1.93,6.889h3.217c.161-2.975,3.539-4.071,6.434-6.889s1.93-7.516,1.93-7.516C27.968,13.562,28.772,14.971,27.968,17.476Z" transform="translate(-3.49 -0.478)" fill="#313652"/>
        <path id="Path_199701" data-name="Path 199701" d="M9.805,20.607c-4.021-2.818-5.147-4.384-5.147-4.384S2.406,15.6,3.371,17.474a10.561,10.561,0,0,0,2.574,3.131s-3.056-.627-3.861-3.131,0-3.914-1.93-4.384c0,0-.965,4.7,1.93,7.516s6.273,3.914,6.434,6.889h3.217A5.386,5.386,0,0,0,9.805,20.607Z" transform="translate(0 -0.478)" fill="#313652"/>
        <g id="noun-achievement-2388527" transform="translate(6.14 0)">
          <path id="Path_199702" data-name="Path 199702" d="M25.914,20.639V18.594A1.822,1.822,0,0,0,24.1,16.775h-.312v-1.42A.355.355,0,0,0,23.428,15H13.486a.355.355,0,0,0-.355.355v1.42h-.312A1.822,1.822,0,0,0,11,18.594v2.045a1.822,1.822,0,0,0,1.818,1.818h.771a5.3,5.3,0,0,0,3.373,2.972l-.813,3.065h4.616l-.813-3.065a5.3,5.3,0,0,0,3.373-2.972H24.1A1.822,1.822,0,0,0,25.914,20.639Zm-13.1,1.108a1.108,1.108,0,0,1-1.108-1.108V18.594a1.108,1.108,0,0,1,1.108-1.108h.312v2.841a2.975,2.975,0,0,0,.021.437v.128a1.159,1.159,0,0,0,.046.323.243.243,0,0,0,.021.121c.028.138.057.273.1.408ZM25.2,20.639A1.108,1.108,0,0,1,24.1,21.747h-.5c.039-.135.067-.27.1-.408a.243.243,0,0,1,.021-.121q.028-.16.046-.323v-.128c0-.146.021-.291.021-.437V17.486h.312A1.108,1.108,0,0,1,25.2,18.594Z" transform="translate(-11 -15)" fill="#6e7cc3"/>
          <path id="Path_199704" data-name="Path 199704" d="M27.446,54.991A2.486,2.486,0,0,0,25.457,54H20.486a2.486,2.486,0,0,0-1.985.991l-.43.572a.355.355,0,0,0,.284.568h9.233a.355.355,0,0,0,.284-.568Z" transform="translate(-15.514 -40.151)" fill="#6e7cc3"/>
        </g>
      </g>
      <path id="Path_199705" data-name="Path 199705" d="M2.126-4.165h1v-5.7H2.118L.629-8.818v.936L2.1-8.893h.024Z" transform="translate(-19.947 -128.696)" fill="#fff"/>
    </g>
  </g>
</svg>
