<svg xmlns="http://www.w3.org/2000/svg" width="34" height="34" viewBox="0 0 34 34">
  <g id="Pay_on_Delivery_icon" data-name="Pay on Delivery icon" transform="translate(-0.194 2.141)">
    <rect id="Rectangle_52549" data-name="Rectangle 52549" width="34" height="34" rx="10" transform="translate(0.194 -2.141)" fill="#fff" opacity="0"/>
    <g id="noun-cash-on-delivery-4988744" transform="translate(-3.39 -5.727)">
      <g id="Group_299165" data-name="Group 299165" transform="translate(8.75 20.853)">
        <path id="Path_199717" data-name="Path 199717" d="M35.846,50.937H32.619v2.356a.269.269,0,0,1-.431.215l-.914-.688-.914.688a.269.269,0,0,1-.431-.215V50.937H26.7a1.077,1.077,0,0,0-1.076,1.076v2.67l.778-.26a4.08,4.08,0,0,1,2.548-.007l3.382,1.109a2.547,2.547,0,0,1,1.374,1.168l2.971-.441c.08-.012.162-.014.243-.018V52.013A1.077,1.077,0,0,0,35.846,50.937Z" transform="translate(-20.784 -50.937)" fill="#313652"/>
        <path id="Path_199718" data-name="Path 199718" d="M35.706,69.087a1.489,1.489,0,0,0-1.6-.946l-3.9.578a1.457,1.457,0,0,0-.973-1.358l-3.349-1.1a3,3,0,0,0-1.873,0l-2.2.735c0,.046.007.091.007.138v4.841a2.138,2.138,0,0,1-.024.3l1.563-.262a.887.887,0,0,1,.544.082l1.651.825a3.742,3.742,0,0,0,2.875.2l6.364-2.122a1.482,1.482,0,0,0,.919-1.926Z" transform="translate(-18.049 -61.761)" fill="#313652"/>
        <rect id="Rectangle_76173" data-name="Rectangle 76173" width="2.69" height="6.993" rx="1.345" transform="translate(0 4.303)" fill="#313652"/>
      </g>
      <g id="Group_299166" data-name="Group 299166" transform="translate(13.591 8.751)">
        <path id="Path_199719" data-name="Path 199719" d="M37.846,27.254H32.281a2.216,2.216,0,0,1-.409-4.393l3.546-.665a.545.545,0,0,0,.394-.321H26.7a1.077,1.077,0,0,0-1.076,1.076v4.572A1.077,1.077,0,0,0,26.7,28.6H38a1.077,1.077,0,0,0,1.076-1.076V27.09a4.815,4.815,0,0,1-1.227.164Z" transform="translate(-25.625 -18.11)" fill="#6e7cc3"/>
        <path id="Path_199720" data-name="Path 199720" d="M48.614,15.205V10.364a2.2,2.2,0,0,1,.013-.236L42.883,8.851a3.76,3.76,0,0,0-2.532.289l-2.1.961a3.789,3.789,0,0,0-1.265,1.027l-.248.312h7.769a.538.538,0,0,1,.506.722l-.254.7a1.62,1.62,0,0,1-1.219,1.035L40,14.559a1.14,1.14,0,0,0,.21,2.26h5.565a3.741,3.741,0,0,0,1.537-.328l1.407-.628A2.14,2.14,0,0,1,48.614,15.205Z" transform="translate(-33.552 -8.751)" fill="#6e7cc3"/>
        <path id="Path_199721" data-name="Path 199721" d="M81.875,16.542a1.077,1.077,0,0,0,1.076,1.076h.538a1.077,1.077,0,0,0,1.076-1.076V11.7a1.077,1.077,0,0,0-1.076-1.076h-.538A1.077,1.077,0,0,0,81.875,11.7" transform="translate(-65.737 -10.087)" fill="#6e7cc3"/>
      </g>
    </g>
  </g>
</svg>
