<svg xmlns="http://www.w3.org/2000/svg" width="34" height="34" viewBox="0 0 34 34">
  <g id="X_Year_Warranty_icon" data-name="X Year Warranty icon" transform="translate(4 5.7)">
    <rect id="Rectangle_52548" data-name="Rectangle 52548" width="34" height="34" rx="10" transform="translate(-4 -5.7)" fill="#fff" opacity="0"/>
    <g id="Group_299167" data-name="Group 299167" transform="translate(-2.408 -6.512)">
      <path id="Path_199722" data-name="Path 199722" d="M12.328,43.866a20.43,20.43,0,0,0-1.859-2.39,20.152,20.152,0,0,1-1.753-2.151.957.957,0,0,0-1.355-.239c-.531.319-.9,1.036-.345,2.1a12.357,12.357,0,0,0,1.726,2.151c.053.053.08.106.133.159a.439.439,0,0,1-.08.637.445.445,0,0,1-.531-.08c-.027-.053-.08-.08-.106-.133A22.316,22.316,0,0,1,6.7,42.22a5.9,5.9,0,0,1-.4-.611,2.549,2.549,0,0,1-.212-2.151,19.417,19.417,0,0,1-.876-2.151,1.233,1.233,0,0,0-2.417.478c.08,1.594.664,6.959,2.2,8.765a20.483,20.483,0,0,0,3.346,2.895.821.821,0,0,1,.345.637V51.17a.589.589,0,0,0,.584.584H13.1a.565.565,0,0,0,.584-.611c-.027-.664-.053-1.726-.106-2.682A13.4,13.4,0,0,0,12.328,43.866Z" transform="translate(0 -22.229)" fill="#313652"/>
      <path id="Path_199723" data-name="Path 199723" d="M65.193,36.994c-.159.5-.5,1.3-.876,2.151A2.639,2.639,0,0,1,64.1,41.3a5.9,5.9,0,0,1-.4.611,18.746,18.746,0,0,1-1.461,1.7c-.027.053-.08.08-.106.133a.411.411,0,0,1-.531.08.437.437,0,0,1-.08-.637c.053-.053.08-.106.133-.159a11.442,11.442,0,0,0,1.726-2.151c.558-1.089.186-1.806-.345-2.1a.957.957,0,0,0-1.355.239,18.312,18.312,0,0,1-1.753,2.151,15.941,15.941,0,0,0-1.859,2.39A11.514,11.514,0,0,0,56.906,48.1c-.053.956-.08,2.018-.106,2.682a.6.6,0,0,0,.584.611h3.825a.589.589,0,0,0,.584-.584V49.716a.747.747,0,0,1,.345-.637,18.211,18.211,0,0,0,3.346-2.895c1.567-1.806,2.125-7.171,2.2-8.765A1.272,1.272,0,0,0,65.193,36.994Z" transform="translate(-39.664 -21.997)" fill="#313652"/>
      <path id="Path_199724" data-name="Path 199724" d="M35.9,17.441a1.657,1.657,0,0,0,1.54-1.54l.053-.8a1.62,1.62,0,0,1,.4-.956l.5-.611a1.687,1.687,0,0,0,0-2.178l-.5-.611a1.62,1.62,0,0,1-.4-.956l-.053-.8a1.657,1.657,0,0,0-1.54-1.54L35.1,7.4a1.619,1.619,0,0,1-.956-.4l-.611-.5a1.687,1.687,0,0,0-2.178,0l-.611.5a1.62,1.62,0,0,1-.956.4l-.8.053a1.657,1.657,0,0,0-1.54,1.54l-.053.8a1.62,1.62,0,0,1-.4.956l-.5.611a1.687,1.687,0,0,0,0,2.178l.5.611a1.62,1.62,0,0,1,.4.956l.053.8a1.657,1.657,0,0,0,1.54,1.54l.8.053a1.619,1.619,0,0,1,.956.4l.611.5a1.687,1.687,0,0,0,2.178,0l.611-.5a1.619,1.619,0,0,1,.956-.4ZM32.448,15.98a3.532,3.532,0,1,1,3.532-3.532A3.548,3.548,0,0,1,32.448,15.98Z" transform="translate(-17.118)" fill="#6e7cc3"/>
      <path id="Path_199725" data-name="Path 199725" d="M45.133,23.635a.208.208,0,0,0-.292,0l-1.647,1.647-.85-.85a.208.208,0,0,0-.292,0l-.717.717a.208.208,0,0,0,0,.292l1.7,1.7a.208.208,0,0,0,.292,0l2.5-2.5a.208.208,0,0,0,0-.292Z" transform="translate(-28.263 -12.834)" fill="#6e7cc3"/>
    </g>
  </g>
</svg>
