<svg width="17" height="17" viewBox="0 0 17 17" fill="none" xmlns="http://www.w3.org/2000/svg">
<g clip-path="url(#clip0_1636_2439)">
<path d="M13.911 7.23161H2.35547M13.911 7.76494V6.27161C13.911 5.67422 13.911 5.37552 13.7851 5.14735C13.6743 4.94665 13.4975 4.78347 13.2801 4.6812C13.0329 4.56494 12.7093 4.56494 12.0621 4.56494H4.20436C3.55719 4.56494 3.2336 4.56494 2.98641 4.6812C2.76898 4.78346 2.5922 4.94664 2.48142 5.14735C2.35547 5.37552 2.35547 5.67422 2.35547 6.27161V10.3249C2.35547 10.9223 2.35547 11.221 2.48142 11.4492C2.5922 11.6499 2.76898 11.8131 2.98641 11.9153C3.2336 12.0316 3.55718 12.0316 4.20436 12.0316H7.84436M11.5999 13.0983C11.5999 13.0983 13.3332 12.3357 13.3332 11.1917V9.85716L12.0693 9.44025C11.7656 9.33982 11.4335 9.33982 11.1298 9.44025L9.86658 9.85716V11.1917C9.86658 12.3357 11.5999 13.0983 11.5999 13.0983Z" stroke="black" stroke-width="0.35" stroke-linecap="round" stroke-linejoin="round"/>
<path d="M11.5168 9.54297L10.0879 10.0431L9.96865 11.091L10.2307 11.9007L11.6597 12.901L13.0648 11.7578V10.0431L11.5168 9.54297Z" fill="black" stroke="black" stroke-width="0.2"/>
<g clip-path="url(#clip1_1636_2439)">
<path d="M12.9325 7.76523C14.6999 7.76523 16.1325 6.33255 16.1325 4.56523C16.1325 2.79792 14.6999 1.36523 12.9325 1.36523C11.1652 1.36523 9.73254 2.79792 9.73254 4.56523C9.73254 6.33255 11.1652 7.76523 12.9325 7.76523Z" fill="#FED443"/>
<path fill-rule="evenodd" clip-rule="evenodd" d="M11.9333 6.12597L10.763 4.87336C10.6027 4.70187 10.6119 4.43055 10.7834 4.27032C10.9549 4.11009 11.2262 4.11932 11.3865 4.29078L12.2892 5.25698L13.7182 3.92187C13.731 3.90985 13.7444 3.89884 13.7583 3.88871L14.4303 3.26088C14.6018 3.10066 14.8731 3.10988 15.0333 3.28137C15.1936 3.45283 15.1843 3.72418 15.0129 3.88441L12.9605 5.80201L12.9583 5.79967L12.2484 6.463L11.9333 6.12597Z" fill="white"/>
</g>
</g>
<defs>
<clipPath id="clip0_1636_2439">
<rect width="16" height="16" fill="white" transform="translate(0.132812 0.298828)"/>
</clipPath>
<clipPath id="clip1_1636_2439">
<rect width="6.4" height="6.4" fill="white" transform="translate(9.73254 1.36523)"/>
</clipPath>
</defs>
</svg>
