<svg xmlns="http://www.w3.org/2000/svg" width="34" height="34" viewBox="0 0 34 34">
  <g id="Eco_Friendly_Product_icon" data-name="Eco Friendly Product icon" transform="translate(-6.96 0.666)">
    <rect id="Rectangle_52550" data-name="Rectangle 52550" width="34" height="34" rx="10" transform="translate(6.96 -0.666)" fill="#fff" opacity="0"/>
    <g id="noun-sustainable-products-6448638" transform="translate(11.511 3.885)">
      <path id="Path_199726" data-name="Path 199726" d="M17.134,7.934a.261.261,0,0,0,.266,0l2.065-1.239a1.011,1.011,0,0,1,1.04,0L22.569,7.93a.264.264,0,0,0,.4-.226V2H17V7.7A.261.261,0,0,0,17.134,7.934Z" transform="translate(-9.404)" fill="#313652"/>
      <path id="Path_199727" data-name="Path 199727" d="M45.937,38.579a4,4,0,0,1-1.54,1.09,5.348,5.348,0,0,1-2.011.366,3.685,3.685,0,0,0-1.887.436,2.817,2.817,0,0,0-1.4,1.743,2.851,2.851,0,0,0,.179,2.017,6.66,6.66,0,0,0,4.693-3,.373.373,0,1,1,.614.423,7.311,7.311,0,0,1-4.863,3.24,2.949,2.949,0,0,0,3.672.513C46.4,43.652,46.24,40.269,45.937,38.579Z" transform="translate(-23.195 -22.933)" fill="#6e7cc3"/>
      <path id="Path_199728" data-name="Path 199728" d="M26.7,43.363a3.12,3.12,0,0,0-1.6-.37,4.6,4.6,0,0,1-1.742-.318,3.452,3.452,0,0,1-1.268-.866c-.242,1.467-.309,4.24,2.169,5.692a2.475,2.475,0,0,0,3.014-.363,6.282,6.282,0,0,1-4.106-2.777.373.373,0,0,1,.614-.423,5.653,5.653,0,0,0,3.946,2.537c.031-.068.057-.136.081-.2a3.577,3.577,0,0,1-.157-1.959A2.335,2.335,0,0,0,26.7,43.363Z" transform="translate(-12.53 -24.958)" fill="#6e7cc3"/>
      <path id="Path_199729" data-name="Path 199729" d="M2.746,19.161H8.79a8.725,8.725,0,0,1,.128-2.869.556.556,0,0,1,.428-.424.547.547,0,0,1,.56.214,2.714,2.714,0,0,0,1.209.941,3.866,3.866,0,0,0,1.489.266,3.821,3.821,0,0,1,1.923.457,3.051,3.051,0,0,1,.9.729,3.538,3.538,0,0,1,1.532-1.6,4.4,4.4,0,0,1,2.208-.525V2.746A.746.746,0,0,0,18.415,2h-4.1V7.7a1.01,1.01,0,0,1-1.53.866L10.717,7.331a.261.261,0,0,0-.271,0L8.379,8.57A1.01,1.01,0,0,1,6.85,7.7V2h-4.1A.746.746,0,0,0,2,2.746V18.415A.746.746,0,0,0,2.746,19.161Z" fill="#313652"/>
      <rect id="Rectangle_76174" data-name="Rectangle 76174" width="4" height="1" rx="0.5" transform="translate(3.948 16.45)" fill="#fff"/>
      <rect id="Rectangle_76175" data-name="Rectangle 76175" width="4" height="1" rx="0.5" transform="translate(3.948 14.45)" fill="#fff"/>
    </g>
  </g>
</svg>
