<svg width="21" height="21" viewBox="0 0 21 21" fill="none" xmlns="http://www.w3.org/2000/svg">
<g clip-path="url(#clip0_1636_2450)">
<g clip-path="url(#clip1_1636_2450)">
<path d="M9.15852 17.1942L9.28662 16.4485C9.29417 16.4048 9.29098 16.3599 9.2773 16.3177C9.26363 16.2754 9.2399 16.2372 9.20814 16.2062L9.15581 16.2599M9.15852 17.1942L10.8908 16.2599L11.5005 15.666L11.6094 15.56L11.4589 15.5381L10.6168 15.4156L10.6167 15.4156C10.5849 15.411 10.5547 15.3987 10.5286 15.3798C10.5026 15.3608 10.4816 15.3359 10.4673 15.307C10.4673 15.307 10.4673 15.307 10.4673 15.307L10.0905 14.5436L10.0233 14.4073L9.956 14.5436L9.57921 15.307C9.57921 15.307 9.57921 15.307 9.57921 15.307C9.56497 15.3359 9.54392 15.3608 9.51789 15.3798C9.49186 15.3987 9.46163 15.411 9.42979 15.4156L9.42977 15.4156L8.58758 15.5381L8.43715 15.56L8.54605 15.666L9.15576 16.2599C9.15578 16.2599 9.1558 16.2599 9.15581 16.2599M9.15852 17.1942L9.1076 17.221L9.14252 17.2874L9.21643 17.3001L9.22617 17.2434L9.89584 16.8912C9.93512 16.8705 9.97886 16.8597 10.0233 16.8597C10.0677 16.8597 10.1114 16.8705 10.1507 16.8912L10.8203 17.2434L10.8301 17.3001L10.904 17.2874L10.9389 17.221L10.888 17.1942L10.7599 16.4485C10.7523 16.4048 10.7555 16.3599 10.7692 16.3177C10.7829 16.2754 10.8066 16.2372 10.8384 16.2062L10.8907 16.2599M9.15852 17.1942L10.8907 16.2599M9.15581 16.2599C9.17883 16.2824 9.19604 16.3102 9.20595 16.3408C9.21588 16.3714 9.2182 16.404 9.21271 16.4357L9.2127 16.4358L9.0686 17.2747L9.04286 17.4245L9.17743 17.3538L9.93075 16.9576L9.93079 16.9575C9.9593 16.9425 9.99104 16.9347 10.0233 16.9347C10.0555 16.9347 10.0872 16.9425 10.1157 16.9575L10.1158 16.9576L10.8691 17.3538L11.0037 17.4245L10.9779 17.2747L10.8338 16.4358L10.8338 16.4357C10.8283 16.404 10.8306 16.3714 10.8406 16.3408C10.8505 16.3102 10.8677 16.2824 10.8907 16.2599M9.15581 16.2599H10.8907M12.2247 15.3601L12.2247 15.3601C12.2362 15.3953 12.2375 15.433 12.2287 15.469C12.2198 15.5049 12.2011 15.5377 12.1746 15.5635C12.1745 15.5635 12.1745 15.5635 12.1745 15.5635L11.2708 16.444L11.2426 16.4715L11.2493 16.5104L11.4625 17.7537C11.4625 17.7537 11.4625 17.7537 11.4625 17.7537C11.4688 17.7902 11.4647 17.8277 11.4508 17.862C11.4368 17.8963 11.4135 17.926 11.3836 17.9477C11.3536 17.9695 11.3182 17.9824 11.2812 17.9851C11.2443 17.9878 11.2074 17.9801 11.1746 17.9628C11.1746 17.9628 11.1746 17.9628 11.1746 17.9628L10.0582 17.3758L10.0232 17.3574L9.98833 17.3758L8.87301 17.9628C8.84023 17.9801 8.80329 17.9878 8.76637 17.9851C8.72944 17.9824 8.69399 17.9695 8.66404 17.9477C8.63408 17.926 8.61081 17.8963 8.59686 17.862C8.5829 17.8277 8.57882 17.7902 8.58507 17.7537L8.79835 16.5104L8.80502 16.4715L8.77677 16.444L7.87306 15.5635C7.84652 15.5377 7.82775 15.5049 7.81888 15.4689C7.81 15.433 7.81137 15.3952 7.82283 15.36C7.83429 15.3248 7.85539 15.2934 7.88373 15.2696C7.91207 15.2457 7.94652 15.2303 7.98319 15.225L7.98327 15.225L9.23179 15.0434L9.27079 15.0377L9.28824 15.0024L9.84528 13.8741C9.86371 13.8437 9.88958 13.8185 9.92047 13.8008C9.95211 13.7828 9.98792 13.7732 10.0244 13.7732C10.0608 13.7732 10.0966 13.7828 10.1282 13.8008C10.1591 13.8185 10.185 13.8437 10.2034 13.8741L10.7593 15.0023L10.7768 15.0377L10.8158 15.0434L12.0643 15.225L12.0644 15.225C12.1011 15.2303 12.1355 15.2457 12.1639 15.2696C12.1922 15.2935 12.2133 15.3249 12.2247 15.3601Z" fill="black" stroke="white" stroke-width="0.15"/>
<path d="M16.9578 14.5337L16.9578 14.5337L16.1071 14.4101L16.0681 14.4045L16.0506 14.369L15.6722 13.6004C15.6537 13.5701 15.6278 13.545 15.597 13.5273C15.5653 13.5093 15.5295 13.4998 15.4931 13.4998C15.4567 13.4998 15.4209 13.5093 15.3892 13.5273C15.3584 13.545 15.3325 13.5701 15.314 13.6005L14.9345 14.3691L14.917 14.4045L14.878 14.4101L14.0262 14.5337L14.0262 14.5337C13.9895 14.539 13.955 14.5545 13.9267 14.5783C13.8984 14.6022 13.8773 14.6335 13.8658 14.6687C13.8543 14.704 13.853 14.7417 13.8618 14.7777C13.8707 14.8136 13.8895 14.8464 13.916 14.8723L13.9161 14.8723L14.5319 15.4739L14.56 15.5014L14.5534 15.5402L14.4082 16.3878C14.402 16.4243 14.4061 16.4618 14.42 16.496C14.434 16.5303 14.4572 16.56 14.4871 16.5817C14.5171 16.6035 14.5525 16.6164 14.5894 16.6191C14.6262 16.6218 14.6631 16.6142 14.6959 16.597C14.6959 16.597 14.6959 16.597 14.6959 16.597L15.457 16.1957L15.4919 16.1772L15.5269 16.1956L16.2881 16.5956C16.3208 16.6128 16.3578 16.6205 16.3947 16.6178C16.4316 16.6151 16.467 16.6021 16.4969 16.5804C16.5268 16.5586 16.5501 16.5289 16.564 16.4947C16.5779 16.4604 16.582 16.423 16.5758 16.3865L16.9578 14.5337ZM16.9578 14.5337C16.9945 14.539 17.029 14.5545 17.0573 14.5784C17.0856 14.6023 17.1067 14.6336 17.1182 14.6689L17.1895 14.6457L17.1181 14.6686C17.1293 14.7037 17.1306 14.7412 17.1217 14.7769C17.1128 14.8127 17.0942 14.8453 17.0679 14.871L16.4521 15.4725L16.424 15.5L16.4306 15.5388L16.5758 16.3865L16.9578 14.5337ZM16.0155 15.4643L16.0155 15.4643L16.0912 15.9076L16.1168 16.0572L15.9824 15.9866L15.5843 15.7774C15.5843 15.7774 15.5843 15.7774 15.5843 15.7774C15.5558 15.7625 15.5242 15.7547 15.492 15.7547C15.4599 15.7547 15.4282 15.7625 15.3997 15.7774C15.3997 15.7774 15.3997 15.7774 15.3997 15.7774L15.0016 15.9866L14.8672 16.0572L14.8928 15.9076L14.9685 15.4643L14.9686 15.4643C14.974 15.4326 14.9717 15.4 14.9618 15.3694C14.9518 15.3388 14.9346 15.3111 14.9116 15.2887C14.9116 15.2887 14.9116 15.2886 14.9116 15.2886L14.5898 14.9748L14.481 14.8687L14.6314 14.8468L15.0762 14.7823L16.0155 15.4643ZM16.0155 15.4643C16.01 15.4326 16.0123 15.4 16.0223 15.3694C16.0322 15.3388 16.0494 15.3111 16.0724 15.2887C16.0724 15.2887 16.0724 15.2886 16.0724 15.2886L16.3942 14.9748L16.503 14.8687L16.3526 14.8468L15.9078 14.7823C15.9078 14.7823 15.9078 14.7823 15.9077 14.7823C15.876 14.7776 15.8458 14.7653 15.8198 14.7465C15.7938 14.7275 15.7728 14.7026 15.7586 14.6738L15.7586 14.6737L15.5593 14.2702L15.492 14.134L15.4248 14.2702L15.2254 14.6737L15.2254 14.6738M16.0155 15.4643L15.2254 14.6738M15.2254 14.6738C15.2112 14.7026 15.1902 14.7275 15.1642 14.7465C15.1382 14.7653 15.1081 14.7776 15.0763 14.7823L15.2254 14.6738Z" fill="black" stroke="white" stroke-width="0.15"/>
<path d="M6.27013 12.0449V11.9699H6.19513H2.09357C2.04094 11.9699 1.99046 11.949 1.95325 11.9118C1.91604 11.8746 1.89513 11.8241 1.89513 11.7715V7.39648C1.89513 7.34386 1.91604 7.29338 1.95325 7.25617C1.99046 7.21895 2.04094 7.19805 2.09357 7.19805H6.19513H6.27013V7.12305V5.75586C6.27013 5.70323 6.29104 5.65276 6.32825 5.61554C6.36546 5.57833 6.41594 5.55742 6.46857 5.55742H13.5779C13.6306 5.55742 13.681 5.57833 13.7183 5.61554C13.7555 5.65276 13.7764 5.70323 13.7764 5.75586V7.12305V7.19805H13.8514H17.9529C18.0056 7.19805 18.056 7.21895 18.0933 7.25617C18.1305 7.29338 18.1514 7.34386 18.1514 7.39648V11.7715C18.1514 11.8241 18.1305 11.8746 18.0933 11.9118C18.056 11.949 18.0056 11.9699 17.9529 11.9699H13.8514H13.7764V12.0449V12.3184C13.7764 12.371 13.7555 12.4215 13.7183 12.4587C13.681 12.4959 13.6306 12.5168 13.5779 12.5168H6.46857C6.41594 12.5168 6.36546 12.4959 6.32825 12.4587C6.29104 12.4215 6.27013 12.371 6.27013 12.3184V12.0449ZM15.492 7.59492H15.417V7.66992V8.49023V8.56523H15.492H16.0389H16.1139V8.49023V7.66992V7.59492H16.0389H15.492ZM13.8514 7.59492H13.7764V7.66992V11.498V11.573H13.8514H17.6795H17.7545V11.498V7.66992V7.59492H17.6795H16.5858H16.5108V7.66992V8.76367C16.5108 8.8163 16.4898 8.86677 16.4526 8.90399C16.4154 8.9412 16.3649 8.96211 16.3123 8.96211H15.2186C15.1659 8.96211 15.1155 8.9412 15.0782 8.90399C15.041 8.86677 15.0201 8.8163 15.0201 8.76367V7.66992V7.59492H14.9451H13.8514ZM9.47638 5.9543H9.40138V6.0293V7.94336V8.01836H9.47638H10.5701H10.6451V7.94336V6.0293V5.9543H10.5701H9.47638ZM6.742 5.9543H6.667V6.0293V12.0449V12.1199H6.742H13.3045H13.3795V12.0449V6.0293V5.9543H13.3045H11.117H11.042V6.0293V8.2168C11.042 8.26943 11.0211 8.3199 10.9839 8.35711C10.9467 8.39433 10.8962 8.41523 10.8436 8.41523H9.20294C9.15031 8.41523 9.09984 8.39433 9.06262 8.35711C9.02541 8.3199 9.0045 8.26943 9.0045 8.2168V6.0293V5.9543H8.9295H6.742ZM4.00763 7.59492H3.93263V7.66992V8.49023V8.56523H4.00763H4.5545H4.6295V8.49023V7.66992V7.59492H4.5545H4.00763ZM2.367 7.59492H2.292V7.66992V11.498V11.573H2.367H6.19513H6.27013V11.498V7.66992V7.59492H6.19513H5.10138H5.02638V7.66992V8.76367C5.02638 8.8163 5.00547 8.86677 4.96826 8.90399C4.93104 8.9412 4.88057 8.96211 4.82794 8.96211H3.73419C3.68156 8.96211 3.63109 8.9412 3.59388 8.90399C3.55666 8.86677 3.53575 8.8163 3.53575 8.76367V7.66992V7.59492H3.46075H2.367Z" fill="black" stroke="white" stroke-width="0.15"/>
<path d="M3.75836 16.5957L3.75837 16.5956L4.51962 16.1956L4.55451 16.1773L4.5894 16.1956L5.35058 16.5956L3.75836 16.5957ZM3.75836 16.5957C3.72559 16.6129 3.68865 16.6206 3.65173 16.6179C3.6148 16.6153 3.57936 16.6023 3.5494 16.5806L3.50533 16.6413L3.54953 16.5807C3.51977 16.559 3.49664 16.5294 3.48273 16.4953C3.46883 16.4612 3.46468 16.424 3.47072 16.3877C3.47073 16.3877 3.47074 16.3876 3.47075 16.3876L3.61589 15.5402L3.62254 15.5014L3.59438 15.4739L2.9786 14.8723L2.97853 14.8723C2.95199 14.8464 2.93322 14.8136 2.92435 14.7777C2.91547 14.7417 2.91684 14.704 2.9283 14.6687C2.93976 14.6335 2.96086 14.6022 2.9892 14.5783C3.01754 14.5545 3.05199 14.539 3.08866 14.5337L3.08873 14.5337L3.93939 14.4101L3.97835 14.4045L3.99582 14.3692L4.37648 13.6005C4.39495 13.5701 4.42084 13.545 4.45174 13.5273C4.48338 13.5093 4.51918 13.4998 4.5556 13.4998C4.59203 13.4998 4.62783 13.5093 4.65947 13.5273C4.69034 13.545 4.71622 13.5701 4.73468 13.6004L5.11312 14.369L5.13056 14.4045L5.16962 14.4101L6.02003 14.5337C6.02006 14.5337 6.0201 14.5337 6.02014 14.5337C6.05656 14.5391 6.09075 14.5546 6.11888 14.5784C6.14704 14.6022 6.16802 14.6334 6.17945 14.6684C6.19089 14.7035 6.19233 14.741 6.18363 14.7768C6.17493 14.8126 6.15646 14.8452 6.13028 14.8711C6.13024 14.8711 6.1302 14.8712 6.13016 14.8712L5.51464 15.4725L5.48648 15.5M3.75836 16.5957L5.48648 15.5M5.48648 15.5L5.49313 15.5388M5.48648 15.5L5.49313 15.5388M5.49313 15.5388L5.63831 16.3865L5.49313 15.5388ZM4.28793 14.6737L4.28791 14.6738C4.27369 14.7026 4.25268 14.7275 4.22669 14.7465C4.20069 14.7654 4.17049 14.7777 4.13869 14.7823L3.6939 14.8468L3.54352 14.8687L3.6523 14.9748L3.97411 15.2886C3.97412 15.2886 3.97413 15.2887 3.97413 15.2887C3.99714 15.3111 4.01434 15.3388 4.02425 15.3694C4.03418 15.4 4.03651 15.4326 4.03106 15.4643L4.03105 15.4643L3.95531 15.9076L3.92974 16.0572L4.06412 15.9866L4.46224 15.7774C4.46224 15.7774 4.46224 15.7774 4.46224 15.7774C4.4907 15.7625 4.52237 15.7547 4.55451 15.7547C4.58665 15.7547 4.61831 15.7625 4.64677 15.7774C4.64678 15.7774 4.64678 15.7774 4.64678 15.7774L5.0449 15.9866L5.17928 16.0572L5.15371 15.9076L5.07797 15.4643L5.07796 15.4643C5.07251 15.4326 5.07484 15.4 5.08476 15.3694C5.09469 15.3388 5.11189 15.3111 5.13491 15.2886L5.45672 14.9748L5.5655 14.8687L5.41512 14.8468L4.97033 14.7823C4.97032 14.7823 4.97032 14.7823 4.97032 14.7823C4.93852 14.7777 4.90832 14.7654 4.88233 14.7465C4.85634 14.7275 4.83533 14.7026 4.8211 14.6738L4.82109 14.6737L4.62175 14.2702L4.55451 14.134L4.48726 14.2702L4.28793 14.6737ZM5.45715 16.6178C5.42029 16.6205 5.3834 16.6128 5.35065 16.5956L5.63832 16.3865C5.64454 16.423 5.64044 16.4604 5.6265 16.4947C5.61255 16.5289 5.58931 16.5586 5.55938 16.5804C5.52946 16.6021 5.49405 16.6151 5.45715 16.6178Z" fill="black" stroke="white" stroke-width="0.15"/>
<path d="M9.82482 1.18242H10.2217V2.67305H9.82482V1.18242Z" fill="black" stroke="white" stroke-width="0.15"/>
<path d="M12.8816 3.05673L13.3482 1.6406L13.725 1.76475L13.2584 3.18088L12.8816 3.05673Z" fill="black" stroke="white" stroke-width="0.15"/>
<path d="M16.0099 4.21481L16.8282 2.96883L17.1601 3.18683L16.3419 4.43281L16.0099 4.21481Z" fill="black" stroke="white" stroke-width="0.15"/>
<path d="M6.32108 1.76993L6.69789 1.64578L7.16446 3.06191L6.78766 3.18606L6.32108 1.76993Z" fill="black" stroke="white" stroke-width="0.15"/>
<path d="M2.88493 3.19193L3.21689 2.97393L4.03512 4.21991L3.70316 4.43791L2.88493 3.19193Z" fill="black" stroke="white" stroke-width="0.15"/>
<path d="M10.7286 5.94434H9.3631V8.09002H10.7286V5.94434Z" fill="black" stroke="black" stroke-width="0.25"/>
<path d="M4.65573 7.62793H3.87091V8.68881H4.65573V7.62793Z" fill="black" stroke="black" stroke-width="0.25"/>
<path d="M16.2202 7.62793H15.4354V8.68881H16.2202V7.62793Z" fill="black" stroke="black" stroke-width="0.25"/>
</g>
<g clip-path="url(#clip2_1636_2450)">
<path d="M15.0233 8.33398C17.0943 8.33398 18.7733 6.65505 18.7733 4.58398C18.7733 2.51292 17.0943 0.833984 15.0233 0.833984C12.9522 0.833984 11.2733 2.51292 11.2733 4.58398C11.2733 6.65505 12.9522 8.33398 15.0233 8.33398Z" fill="#FED443"/>
<path fill-rule="evenodd" clip-rule="evenodd" d="M13.853 6.41297L12.4816 4.94507C12.2938 4.7441 12.3046 4.42615 12.5055 4.23838C12.7065 4.05062 13.0244 4.06142 13.2122 4.26236L14.2701 5.39462L15.9447 3.83005C15.9597 3.81596 15.9755 3.80306 15.9917 3.79119L16.7792 3.05545C16.9802 2.86768 17.2981 2.87849 17.4859 3.07946C17.6736 3.28039 17.6628 3.59837 17.4619 3.78614L15.0568 6.03333L15.0542 6.03059L14.2222 6.80793L13.853 6.41297Z" fill="white"/>
</g>
</g>
<defs>
<clipPath id="clip0_1636_2450">
<rect width="20" height="20" fill="white" transform="translate(0.0839844 0.298828)"/>
</clipPath>
<clipPath id="clip1_1636_2450">
<rect width="17.5" height="17.5" fill="white" transform="translate(1.27325 0.833984)"/>
</clipPath>
<clipPath id="clip2_1636_2450">
<rect width="7.5" height="7.5" fill="white" transform="translate(11.2733 0.833984)"/>
</clipPath>
</defs>
</svg>
