<svg xmlns="http://www.w3.org/2000/svg" xmlns:xlink="http://www.w3.org/1999/xlink" width="34" height="34" viewBox="0 0 34 34">
  <defs>
    <clipPath id="clip-path">
      <rect id="Rectangle_76172" data-name="Rectangle 76172" width="29" height="16" transform="translate(-0.001 -0.482)" fill="none"/>
    </clipPath>
  </defs>
  <g id="Free_Delivery_icon" data-name="Free  Delivery icon" transform="translate(-7.96 0.259)">
    <rect id="Rectangle_52550" data-name="Rectangle 52550" width="34" height="34" rx="10" transform="translate(7.96 -0.259)" fill="#fff" opacity="0"/>
    <g id="Group_299163" data-name="Group 299163" transform="translate(10.92 9.25)">
      <g id="Group_299162" data-name="Group 299162" transform="translate(-0.459 -0.027)" clip-path="url(#clip-path)">
        <path id="Path_199710" data-name="Path 199710" d="M383.826,513.166a2.558,2.558,0,0,0-2.5,2.3,2.078,2.078,0,0,0,2.1,2.3,2.559,2.559,0,0,0,2.5-2.3,2.078,2.078,0,0,0-2.1-2.3m-.3,3.434a1.026,1.026,0,0,1-1.039-1.135,1.263,1.263,0,0,1,1.235-1.135,1.026,1.026,0,0,1,1.039,1.135,1.264,1.264,0,0,1-1.236,1.135" transform="translate(-373.857 -502.966)" fill="#6e7cc3"/>
        <path id="Path_199711" data-name="Path 199711" d="M669.266,217.959h-.281l-.147,1.154h.271c.477,0,.631-.165.676-.509l.016-.122c.044-.344-.023-.523-.534-.523" transform="translate(-655.797 -213.489)" fill="#313652"/>
        <path id="Path_199712" data-name="Path 199712" d="M28.609,6.354,26.094,3.606a1.954,1.954,0,0,0-1.264-.542h-3.07l.2-2.3a.7.7,0,0,0-.7-.766H5.9a.855.855,0,0,0-.834.766L5.054.907H4.145a.505.505,0,0,0-.494.454.41.41,0,0,0,.416.454h3.3a.411.411,0,0,1,.416.454.506.506,0,0,1-.494.454H2.325a.505.505,0,0,0-.494.454.41.41,0,0,0,.416.454H6.525a.41.41,0,0,1,.416.454.505.505,0,0,1-.494.454H3.235a.505.505,0,0,0-.494.454.41.41,0,0,0,.416.454H7.506a.411.411,0,0,1,.416.454.506.506,0,0,1-.494.454H1.5A.505.505,0,0,0,1,6.81a.41.41,0,0,0,.416.454h5.25a.411.411,0,0,1,.416.454.505.505,0,0,1-.494.454H4.427l-.287,3.32a.7.7,0,0,0,.7.766h1.92A3.2,3.2,0,0,1,9.888,9.386a2.6,2.6,0,0,1,2.631,2.873h9.213A3.2,3.2,0,0,1,24.86,9.386a2.6,2.6,0,0,1,2.631,2.873h.384a.856.856,0,0,0,.834-.766l.331-3.831a1.965,1.965,0,0,0-.431-1.308M11.825,4.225h-1.5l-.111.9h1.267l-.074.589H10.144L9.954,7.264H9.3l.441-3.633H11.9Zm2.741.495-.024.188a1.022,1.022,0,0,1-.76.97l.622,1.38h-.764L13.08,5.982h-.243l-.163,1.277H12.02l.459-3.628h.927c.888,0,1.262.32,1.161,1.089M17.4,4.2H15.943l-.124.933h1.239l-.08.585H15.741l-.128.956h1.515l-.081.594H14.88l.479-3.633h2.117Zm2.745,0H18.688l-.129.933H19.8l-.082.585H18.478l-.132.956h1.515l-.085.594H17.609l.5-3.633h2.116Zm2.086,2.315.232-2.682h2.3a1.287,1.287,0,0,1,.74.317L27.67,6.512H22.229Z" transform="translate(0.131 0.24)" fill="#313652"/>
        <path id="Path_199713" data-name="Path 199713" d="M1155.078,513.166a2.558,2.558,0,0,0-2.5,2.3,2.078,2.078,0,0,0,2.1,2.3,2.559,2.559,0,0,0,2.5-2.3,2.078,2.078,0,0,0-2.1-2.3m-.3,3.434a1.025,1.025,0,0,1-1.039-1.135,1.263,1.263,0,0,1,1.236-1.135,1.025,1.025,0,0,1,1.039,1.135,1.265,1.265,0,0,1-1.236,1.135" transform="translate(-1130.138 -502.966)" fill="#6e7cc3"/>
      </g>
    </g>
  </g>
</svg>
