<svg width="17" height="18" viewBox="0 0 17 18" fill="none" xmlns="http://www.w3.org/2000/svg">
<g clip-path="url(#clip0_1636_2426)">
<path d="M7.27274 14.8853L7.27273 14.8853C3.70316 13.5864 1.30898 10.2838 1.30898 6.67226V1.66024C1.30898 1.5906 1.33997 1.52268 1.39664 1.47374L1.39675 1.47365C1.4543 1.42381 1.5313 1.39858 1.60812 1.40651L1.60975 1.40666C2.42309 1.47713 3.24652 1.47713 4.05794 1.40666L4.05803 1.40665C5.39974 1.2889 6.71797 0.97688 7.97618 0.479735L7.97619 0.479733C8.04488 0.452587 8.1231 0.452594 8.19172 0.479726L8.19173 0.479733C9.4499 0.976928 10.7682 1.2889 12.1099 1.40665L12.1099 1.40665C12.9214 1.47761 13.7449 1.4776 14.5582 1.40667L14.5596 1.40653C14.6371 1.39872 14.7136 1.42415 14.7714 1.47386C14.828 1.52276 14.8589 1.59061 14.8589 1.66024V6.67226C14.8589 10.2838 12.4648 13.5864 8.89494 14.8853L8.89492 14.8853L8.18469 15.144C8.18465 15.144 8.1846 15.144 8.18456 15.144C8.15217 15.1557 8.11812 15.1616 8.08399 15.1616C8.04979 15.1616 8.01565 15.1557 7.98323 15.144L7.27274 14.8853ZM1.96488 1.94386L1.85898 1.93761V2.04368V6.67226C1.85898 10.0818 4.11791 13.1897 7.47364 14.4108L8.04977 14.6205L8.08399 14.633L8.11821 14.6205L8.69413 14.4108C12.0501 13.1897 14.309 10.0818 14.309 6.67226V2.04368V1.93761L14.2031 1.94386C13.4882 1.98606 12.7692 1.97642 12.0581 1.91379L12.0581 1.91379C10.7109 1.79562 9.38702 1.48984 8.11976 1.00436L8.08399 0.990652L8.04821 1.00436C6.78095 1.48984 5.45705 1.79567 4.1099 1.91379L4.10985 1.91379C3.39947 1.97642 2.67977 1.98606 1.96488 1.94386ZM8.22848 0.386738L8.22848 0.386735L8.22848 0.386738Z" fill="black" stroke="white" stroke-width="0.2"/>
<path d="M10.4172 11.1155H5.75073C4.95387 11.1155 4.30898 10.481 4.30898 9.70574V5.13618C4.30898 4.36094 4.95387 3.72646 5.75073 3.72646H10.4172C11.2141 3.72646 11.859 4.36094 11.859 5.13618V9.70574C11.859 10.481 11.2141 11.1155 10.4172 11.1155ZM5.75073 4.26088C5.261 4.26088 4.85898 4.6515 4.85898 5.13618V9.70574C4.85898 10.1904 5.26094 10.581 5.75073 10.581H10.4172C10.907 10.581 11.309 10.1904 11.309 9.70574V5.13618C11.309 4.65156 10.907 4.26088 10.4172 4.26088H5.75073Z" fill="black" stroke="white" stroke-width="0.2"/>
<path d="M9.28123 6.75421L9.22963 6.66855C9.18517 6.69533 9.13476 6.70894 9.08403 6.70894C9.04175 6.70894 8.99939 6.69943 8.96026 6.68038C8.96022 6.68036 8.96018 6.68034 8.96014 6.68032L8.12802 6.2728L8.08403 6.25127L8.04005 6.2728L7.2083 6.68014C7.20821 6.68018 7.20813 6.68022 7.20804 6.68026C7.12186 6.72172 7.01978 6.71718 6.93834 6.66855C6.85743 6.61936 6.80898 6.53319 6.80898 6.44174V3.99367C6.80898 3.84812 6.93017 3.72646 7.08398 3.72646H9.08398C9.2378 3.72646 9.35898 3.84812 9.35898 3.99367V6.44174C9.35898 6.53329 9.31044 6.61954 9.22938 6.6687L9.28123 6.75421ZM9.28123 6.75421C9.22093 6.79053 9.15263 6.80894 9.08403 6.80894C9.02668 6.80894 8.96928 6.79602 8.91633 6.77022L9.28123 6.75421ZM8.66505 5.93744L8.80903 6.00797V5.84764V4.36088V4.26088H8.70903H7.45903H7.35903V4.36088V5.84764V6.00797L7.50302 5.93744L7.96027 5.71347C7.96029 5.71346 7.9603 5.71346 7.96032 5.71345C7.96032 5.71345 7.96032 5.71345 7.96032 5.71345C7.99912 5.69448 8.04164 5.68491 8.08403 5.68491C8.12646 5.68491 8.16902 5.69449 8.20775 5.71345C8.20775 5.71345 8.20776 5.71345 8.20776 5.71345L8.66505 5.93744Z" fill="black" stroke="white" stroke-width="0.2"/>
<path d="M7.25781 6.21737V4.16699H8.91904V6.21737L8.12337 5.80725L7.25781 6.21737Z" fill="black" stroke="black" stroke-width="0.2"/>
<path d="M9.58398 9.15688H9.08398C8.93017 9.15688 8.80898 9.03522 8.80898 8.88967C8.80898 8.74412 8.93017 8.62246 9.08398 8.62246H9.58398C9.7378 8.62246 9.85898 8.74412 9.85898 8.88967C9.85898 9.03522 9.7378 9.15688 9.58398 9.15688Z" fill="black" stroke="white" stroke-width="0.2"/>
<g clip-path="url(#clip1_1636_2426)">
<path d="M12.8836 7.02656C14.6509 7.02656 16.0836 5.50433 16.0836 3.62656C16.0836 1.74879 14.6509 0.226562 12.8836 0.226562C11.1163 0.226562 9.68359 1.74879 9.68359 3.62656C9.68359 5.50433 11.1163 7.02656 12.8836 7.02656Z" fill="#FED443"/>
<path fill-rule="evenodd" clip-rule="evenodd" d="M11.8844 5.28484L10.714 3.95394C10.5538 3.77173 10.563 3.48346 10.7345 3.31322C10.906 3.14298 11.1773 3.15277 11.3375 3.33496L12.2403 4.36154L13.6692 2.94299C13.6821 2.93022 13.6955 2.91852 13.7094 2.90776L14.3813 2.24069C14.5528 2.07045 14.8242 2.08025 14.9844 2.26246C15.1446 2.44464 15.1354 2.73294 14.9639 2.90318L12.9115 4.94064L12.9093 4.93815L12.1994 5.64294L11.8844 5.28484Z" fill="white"/>
</g>
</g>
<defs>
<clipPath id="clip0_1636_2426">
<rect width="16" height="17" fill="white" transform="translate(0.0839844 0.226562)"/>
</clipPath>
<clipPath id="clip1_1636_2426">
<rect width="6.4" height="6.8" fill="white" transform="translate(9.68359 0.226562)"/>
</clipPath>
</defs>
</svg>
