<svg width="19" height="19" viewBox="0 0 19 19" fill="none" xmlns="http://www.w3.org/2000/svg">
<g clip-path="url(#clip0_1636_2470)">
<path d="M14.5737 3.40723H10.5732H7.76074H3.76031C3.25705 3.40723 2.84766 3.81662 2.84766 4.31988V14.0081C2.84766 14.5113 3.25705 14.9207 3.76031 14.9207H6.91699V14.6571H3.76031C3.40242 14.6571 3.11133 14.366 3.11133 14.0081V4.31988C3.11133 3.96199 3.40242 3.6709 3.76031 3.6709H7.62891V6.91406C7.62891 6.96152 7.65439 7.00547 7.6957 7.02885C7.73701 7.05223 7.78781 7.0517 7.82842 7.02727L9.16699 6.22412L10.5054 7.02727C10.5263 7.03975 10.5497 7.04607 10.5732 7.04607C10.5956 7.04607 10.6181 7.04045 10.6383 7.02902C10.6796 7.00564 10.7051 6.96188 10.7051 6.91424V3.6709H14.5737C14.9316 3.6709 15.2227 3.96199 15.2227 4.31988V14.0081C15.2227 14.366 14.9316 14.6571 14.5737 14.6571H11.417V14.9207H14.5737C15.0769 14.9207 15.4863 14.5113 15.4863 14.0081V4.31988C15.4863 3.81662 15.0769 3.40723 14.5737 3.40723ZM10.4414 6.68115L9.23484 5.95711C9.21393 5.94463 9.19055 5.9383 9.16699 5.9383C9.14344 5.9383 9.12006 5.94463 9.09914 5.95711L7.89258 6.68115V3.6709H10.4414V6.68115Z" fill="black"/>
<path d="M9.16637 8.18848C8.21275 8.18848 7.32453 8.65201 6.79033 9.42844C6.47006 9.89355 6.30078 10.4371 6.30078 11.0004C6.30078 11.5311 6.44844 12.1263 6.73971 12.7693C6.96998 13.2779 7.29061 13.8184 7.69262 14.376C8.37482 15.3222 9.0674 16.0018 9.07426 16.0085C9.09992 16.0334 9.13314 16.0459 9.16637 16.0459C9.19959 16.0459 9.23264 16.0334 9.2583 16.0086C9.26779 15.9995 10.2146 15.074 10.9904 13.868C11.6816 12.7939 12.0321 11.8293 12.0321 11.0004C12.032 9.44988 10.7465 8.18848 9.16637 8.18848ZM9.16637 11.9766C8.70037 11.9766 8.32262 11.5988 8.32262 11.1328C8.32262 10.6668 8.70037 10.2891 9.16637 10.2891C9.63236 10.2891 10.0101 10.6668 10.0101 11.1328C10.0101 11.5988 9.63236 11.9766 9.16637 11.9766Z" fill="black"/>
<g clip-path="url(#clip1_1636_2470)">
<path d="M15.168 8.18848C16.8248 8.18848 18.168 6.84533 18.168 5.18848C18.168 3.53162 16.8248 2.18848 15.168 2.18848C13.5111 2.18848 12.168 3.53162 12.168 5.18848C12.168 6.84533 13.5111 8.18848 15.168 8.18848Z" fill="#FED443"/>
<path fill-rule="evenodd" clip-rule="evenodd" d="M14.2318 6.65166L13.1346 5.47734C12.9844 5.31657 12.993 5.06221 13.1538 4.912C13.3146 4.76178 13.5689 4.77043 13.7191 4.93118L14.5655 5.83699L15.9051 4.58533C15.9171 4.57406 15.9297 4.56374 15.9427 4.55424L16.5727 3.96565C16.7335 3.81544 16.9879 3.82408 17.1381 3.98485C17.2883 4.1456 17.2796 4.39999 17.1189 4.5502L15.1948 6.34796L15.1927 6.34576L14.5271 6.96763L14.2318 6.65166Z" fill="white"/>
</g>
</g>
<defs>
<clipPath id="clip0_1636_2470">
<rect width="18" height="18" fill="white" transform="translate(0.167969 0.726562)"/>
</clipPath>
<clipPath id="clip1_1636_2470">
<rect width="6" height="6" fill="white" transform="translate(12.168 2.18848)"/>
</clipPath>
</defs>
</svg>
