<svg xmlns="http://www.w3.org/2000/svg" width="34" height="34" viewBox="0 0 34 34">
  <g id="Installation_Available_on_Request_icon" data-name="Installation Available on Request icon" transform="translate(-317 -743.281)">
    <rect id="Rectangle_52550" data-name="Rectangle 52550" width="34" height="34" rx="10" transform="translate(317 743.281)" fill="#fff" opacity="0"/>
    <g id="Group_299168" data-name="Group 299168" transform="translate(322.503 748.701)">
      <g id="Group_299169" data-name="Group 299169" transform="translate(0.5 0.6)">
        <g id="Group_299168-2" data-name="Group 299168" transform="translate(0)">
          <path id="Path_199730" data-name="Path 199730" d="M20.226,11.867a.364.364,0,0,1-.271.338l-1.692.3c-.1.338-.2.643-.338.981a.358.358,0,0,1-.237.2.273.273,0,0,1-.3-.1L15.861,12.07a.273.273,0,0,1-.1-.3,5.583,5.583,0,1,0-4.06,4.026.343.343,0,0,1,.338.1l1.523,1.523a.472.472,0,0,1,.1.3.358.358,0,0,1-.2.237,4.825,4.825,0,0,1-.914.3l-.3,1.692a.329.329,0,0,1-.338.271H8.925a.329.329,0,0,1-.338-.271l-.3-1.692A6.683,6.683,0,0,1,6.32,17.45L4.9,18.431a.358.358,0,0,1-.44-.034l-2.1-2.03a.355.355,0,0,1-.034-.44l.981-1.421A7.509,7.509,0,0,1,2.5,12.578l-1.726-.3A.329.329,0,0,1,.5,11.935V8.957a.364.364,0,0,1,.271-.338l1.692-.3a7.084,7.084,0,0,1,.812-1.962L2.293,4.931a.358.358,0,0,1,.034-.44l2.1-2.064a.355.355,0,0,1,.44-.034l1.421.981a8.046,8.046,0,0,1,1.929-.812l.3-1.692A.329.329,0,0,1,8.857.6h2.978a.329.329,0,0,1,.338.271l.3,1.692a7.084,7.084,0,0,1,1.962.812l1.421-.981a.358.358,0,0,1,.44.034l2.1,2.1a.316.316,0,0,1,.034.44l-.981,1.421a7.741,7.741,0,0,1,.812,1.962l1.692.3a.329.329,0,0,1,.271.338Z" transform="translate(-0.5 -0.6)" fill="#313652"/>
        </g>
      </g>
      <g id="Group_299171" data-name="Group 299171" transform="translate(6.421 6.429)">
        <g id="Group_299170" data-name="Group 299170">
          <path id="Path_199731" data-name="Path 199731" d="M31.127,28.2a3.235,3.235,0,0,0-2.842,2.842L23.615,26.31a1.784,1.784,0,0,0-1.353-.541,3.968,3.968,0,0,1-4.026-5.312.33.33,0,0,1,.541-.135l2.064,2.064a.389.389,0,0,0,.575,0l1.15-1.15a.389.389,0,0,0,0-.575L20.5,18.6a.326.326,0,0,1,.135-.541,3.962,3.962,0,0,1,5.244,4.06,1.738,1.738,0,0,0,.541,1.353Z" transform="translate(-17.998 -17.826)" fill="#6e7cc3"/>
        </g>
      </g>
      <g id="Group_299173" data-name="Group 299173" transform="translate(17.35 17.416)">
        <g id="Group_299172" data-name="Group 299172">
          <path id="Path_199732" data-name="Path 199732" d="M55.443,52.871a2.571,2.571,0,1,0-2.571,2.571A2.592,2.592,0,0,0,55.443,52.871Zm-2.538.947a.947.947,0,0,1,0-1.895.947.947,0,0,1,0,1.895Z" transform="translate(-50.3 -50.3)" fill="#6e7cc3"/>
        </g>
      </g>
    </g>
  </g>
</svg>
