<svg xmlns="http://www.w3.org/2000/svg" width="34" height="34" viewBox="0 0 34 34">
  <g id="Group_166681" data-name="Group 166681" transform="translate(-7.96 0.259)">
    <rect id="Rectangle_52550" data-name="Rectangle 52550" width="34" height="34" rx="10" transform="translate(7.96 -0.259)" fill="#fff" opacity="0"/>
    <g id="noun-parcel-return-4771260" transform="translate(-58.777 0.659)">
      <g id="Group_166699" data-name="Group 166699">
        <path id="Path_153269" data-name="Path 153269" d="M106.375,3.082H99.462a.757.757,0,0,0-.758.758V6.3a.252.252,0,0,0,.252.252h7.418Z" transform="translate(-26.967)" fill="#313652"/>
        <path id="Path_153270" data-name="Path 153270" d="M359.905,6.3V3.839a.757.757,0,0,0-.758-.758h-6.913V6.556h7.418a.253.253,0,0,0,.253-.252Z" transform="translate(-268.704)" fill="#313652"/>
        <path id="Path_153271" data-name="Path 153271" d="M127.589,133.882a2.423,2.423,0,0,1,3.964,1.868v.294h4.974a.757.757,0,0,0,.757-.758V123.907h-6.693v3a.251.251,0,0,1-.46.142l-.477-.712a.252.252,0,0,0-.436.028L128.7,127.4h0a.251.251,0,0,1-.415.055l-.643-.743h0a.257.257,0,0,0-.394.01l-.325.425a.252.252,0,0,1-.453-.152v-3.089h-6.689v11.379a.757.757,0,0,0,.757.758h4.438Z" transform="translate(-47.062 -115.205)" fill="#313652"/>
      </g>
      <path id="Path_153272" data-name="Path 153272" d="M222.208,253.36v5.23a2.843,2.843,0,0,1-2.836,2.84h-6.407v-2.248h0a.692.692,0,0,0-1.132-.533l-4.6,3.8a.692.692,0,0,0,0,1.067l4.6,3.8a.692.692,0,0,0,1.132-.533v-2.245h6.407a5.951,5.951,0,0,0,2.836-11.182Z" transform="translate(-130.204 -238.636)" fill="#6f7cc3"/>
    </g>
  </g>
</svg>
