<svg width="15" height="15" viewBox="0 0 15 15" fill="none" xmlns="http://www.w3.org/2000/svg">
    <g clip-path="url(#clip0_1636_2414)">
        <path
            d="M12.6946 2.43625L7.20318 0.788793C7.12629 0.765715 7.04434 0.765715 6.96743 0.788793L1.47587 2.43625C1.3024 2.48829 1.18359 2.64798 1.18359 2.8291V8.86977C1.18359 9.65547 1.50168 10.4598 2.12898 11.2603C2.60807 11.8717 3.27091 12.4857 4.09901 13.0851C5.49018 14.0921 6.86007 14.7099 6.91772 14.7357C6.97101 14.7595 7.02816 14.7715 7.08531 14.7715C7.14245 14.7715 7.1996 14.7596 7.2529 14.7357C7.31051 14.7099 8.68038 14.0921 10.0715 13.0851C10.8996 12.4857 11.5625 11.8717 12.0416 11.2603C12.6689 10.4598 12.9869 9.6555 12.9869 8.86977V2.8291C12.9869 2.64798 12.8682 2.48829 12.6946 2.43625Z"
            fill="#4A0C9C" />
        <path
            d="M9.58318 5.9774C9.54854 5.94248 9.50733 5.91476 9.46193 5.89584C9.41652 5.87693 9.36782 5.86719 9.31864 5.86719C9.26945 5.86719 9.22075 5.87693 9.17535 5.89584C9.12994 5.91476 9.08874 5.94248 9.0541 5.9774L6.2783 8.75692L5.11209 7.58699C5.07613 7.55225 5.03368 7.52493 4.98716 7.5066C4.94064 7.48827 4.89096 7.47928 4.84097 7.48014C4.79097 7.48101 4.74164 7.49171 4.69578 7.51164C4.64992 7.53157 4.60844 7.56034 4.5737 7.5963C4.53896 7.63227 4.51165 7.67472 4.49331 7.72124C4.47498 7.76776 4.46599 7.81743 4.46685 7.86743C4.46772 7.91742 4.47842 7.96676 4.49835 8.01262C4.51828 8.05847 4.54705 8.09996 4.58302 8.1347L6.01376 9.56544C6.0484 9.60036 6.08961 9.62808 6.13501 9.647C6.18042 9.66592 6.22912 9.67565 6.2783 9.67565C6.32749 9.67565 6.37619 9.66592 6.42159 9.647C6.46699 9.62808 6.5082 9.60036 6.54284 9.56544L9.58318 6.52511C9.621 6.49022 9.65118 6.44787 9.67182 6.40074C9.69247 6.35361 9.70312 6.30271 9.70312 6.25125C9.70312 6.1998 9.69247 6.1489 9.67182 6.10177C9.65118 6.05463 9.621 6.01229 9.58318 5.9774Z"
            fill="white" />
    </g>
    <defs>
        <clipPath id="clip0_1636_2414">
            <rect width="14" height="14" fill="white" transform="translate(0.0839844 0.771484)" />
        </clipPath>
    </defs>
</svg>